<svg width="56" height="58" viewBox="0 0 56 58" fill="none" xmlns="http://www.w3.org/2000/svg">
<g filter="url(#filter0_dd_3_694)">
<rect x="3" y="3" width="50" height="50" rx="4.83838" fill="#002500"/>
<path d="M35.6417 32.299C35.6393 32.2975 35.6369 32.2961 35.6344 32.2948L35.6417 32.299Z" fill="white"/>
<path fill-rule="evenodd" clip-rule="evenodd" d="M23.2771 16.4125C23.9386 15.8292 24.4823 15.0417 24.6698 14.2896C24.7761 13.8625 24.8261 13.1865 24.3542 12.6406C23.8719 12.0813 23.1583 12.0198 22.5969 12.0906C22.1542 12.1469 21.8365 12.1583 21.5531 12.1677L21.5083 12.1698C21.1854 12.1802 20.8 12.1938 20.3761 12.3313C19.9333 12.475 19.5146 12.7271 19.0136 13.0969C18.6863 13.337 18.3774 13.6013 18.0896 13.8875C16.3927 12.6792 14.2083 12.2073 10.7802 12.375C10.3658 12.3792 9.97004 12.5477 9.67995 12.8437C9.38985 13.1397 9.22921 13.5387 9.23335 13.9531C9.23749 14.3675 9.40609 14.7633 9.70204 15.0534C9.998 15.3435 10.3971 15.5042 10.8115 15.5H12.3094C12.399 15.5615 12.4844 15.6208 12.5646 15.6781L10.2 18.6365C9.73893 18.6746 9.29206 18.8146 8.89168 19.0465C8.49129 19.2783 8.14738 19.5962 7.88477 19.9771C7.62216 20.358 7.4474 20.7924 7.37312 21.2491C7.29884 21.7058 7.32688 22.1732 7.45522 22.6177L7.75731 23.6594C7.94531 24.3099 8.3395 24.8817 8.88054 25.2888C9.42159 25.6959 10.0802 25.9162 10.7573 25.9167H14.0094C14.2361 25.9166 14.4566 25.9905 14.6375 26.1271L16.6615 27.6563C16.8386 27.7896 17.024 27.901 17.2156 27.9927C18.4208 31.2531 19.7177 34.0302 21.1865 35.8802L21.5198 39.8906C21.1749 40.156 20.9218 40.5227 20.796 40.9393C20.6702 41.3559 20.678 41.8014 20.8183 42.2133C20.9586 42.6253 21.2243 42.9829 21.5783 43.2361C21.9322 43.4893 22.3565 43.6253 22.7917 43.625H25.9167C26.1929 43.625 26.4579 43.5153 26.6533 43.3199C26.8486 43.1246 26.9583 42.8596 26.9583 42.5833V34.25H30.2083L30.25 34.4031C30.0131 34.5282 29.8336 34.7398 29.7486 34.9939C29.6637 35.2479 29.6799 35.525 29.7938 35.7674C29.9078 36.0098 30.1108 36.199 30.3606 36.2957C30.6105 36.3924 30.888 36.3891 31.1354 36.2865L31.2511 36.2386C31.6115 36.6583 32.0448 37.0302 32.5354 37.3427L32.5323 37.3511C32.4118 37.5933 32.3903 37.873 32.4724 38.1308C32.5545 38.3887 32.7337 38.6045 32.9721 38.7325C33.2104 38.8606 33.4893 38.8908 33.7496 38.8169C34.0099 38.743 34.2312 38.5707 34.3667 38.3365L34.4531 38.1761C35.1409 38.3556 35.851 38.4353 36.5615 38.4125L36.5886 38.5531C36.641 38.8244 36.7992 39.0638 37.0281 39.2185C37.2571 39.3732 37.5381 39.4306 37.8094 39.3781C38.0807 39.3256 38.32 39.1675 38.4747 38.9386C38.6294 38.7096 38.6869 38.4286 38.6344 38.1573L38.6146 38.0583C39.1232 37.8936 39.6101 37.668 40.0646 37.3865L40.2729 39.8896C39.9279 40.1547 39.6744 40.5212 39.5483 40.9377C39.4221 41.3541 39.4295 41.7997 39.5695 42.2117C39.7094 42.6237 39.9749 42.9816 40.3286 43.2351C40.6823 43.4886 41.1065 43.6249 41.5417 43.625H44.6667C44.943 43.625 45.2079 43.5153 45.4033 43.3199C45.5986 43.1246 45.7084 42.8596 45.7084 42.5833V24.875C45.7084 22.1365 45.0594 20.1458 43.9667 18.7844C44.8469 18.9542 45.4261 19.2479 45.8125 19.6198C46.3927 20.1771 46.75 21.1156 46.75 22.7906L47.1531 28.4365C46.9073 28.8167 46.75 29.4125 46.75 30.0823C46.75 31.2333 47.2167 32.1656 47.7917 32.1656C48.3667 32.1656 48.8334 31.2333 48.8334 30.0823C48.8334 29.4125 48.675 28.8167 48.4302 28.4365L48.8334 22.7917C48.8334 20.8813 48.4344 19.25 47.2563 18.1177C46.0927 17 44.3854 16.5792 42.2844 16.5438L39.1438 16.5417H25.3958C24.6146 16.5417 23.9136 16.4938 23.2771 16.4125ZM42.0917 19.8063C41.2813 18.9719 40.2156 18.6406 39.1542 18.6261H25.3958C23.0104 18.6261 21.2604 18.226 19.7979 17.7271C19.5824 17.6536 19.3969 17.5114 19.2698 17.3224C19.1427 17.1335 19.081 16.908 19.0943 16.6807C19.1075 16.4533 19.1949 16.2365 19.343 16.0636C19.4912 15.8906 19.692 15.7709 19.9146 15.7229C20.6261 15.5698 21.3 15.3052 21.7115 15.0021C22.0054 14.7825 22.257 14.5114 22.4542 14.2021C22.1146 14.2333 21.8458 14.2427 21.6292 14.25H21.6261C21.2511 14.2636 21.1417 14.2729 21.0188 14.3125C20.8938 14.3542 20.6865 14.4521 20.249 14.774C19.7156 15.1667 19.3156 15.5844 19.0823 15.9292C18.9974 16.0538 18.8864 16.1585 18.757 16.2361C18.6276 16.3136 18.483 16.3622 18.333 16.3783C18.183 16.3945 18.0313 16.3778 17.8884 16.3296C17.7455 16.2814 17.6147 16.2027 17.5052 16.099C16.7854 15.4188 15.9302 14.9135 14.6094 14.6448L14.7271 14.7511C14.9224 14.9293 15.0427 15.1753 15.0634 15.4389C15.0841 15.7026 15.0037 15.9643 14.8386 16.1708L11.5219 20.3167C11.4244 20.4388 11.3006 20.5374 11.1598 20.6052C11.0189 20.673 10.8647 20.7083 10.7084 20.7083H10.4583C10.2968 20.7083 10.1374 20.7458 9.99284 20.8179C9.84827 20.8901 9.72246 20.9948 9.62536 21.124C9.52826 21.2531 9.46253 21.403 9.43336 21.562C9.40419 21.7209 9.41239 21.8844 9.45731 22.0396L9.75731 23.0813C9.82009 23.2982 9.95167 23.4888 10.1322 23.6245C10.3128 23.7601 10.5325 23.8334 10.7583 23.8333H14.0104C14.6902 23.8333 15.3513 24.055 15.8938 24.4646L17.9177 25.9938C18.0406 26.0854 18.1656 26.1438 18.2896 26.175C18.4537 26.2173 18.6051 26.2989 18.7305 26.4129C18.856 26.5269 18.9517 26.6698 19.0094 26.8292C20.3094 30.4188 21.624 33.1771 22.9948 34.799C23.1344 34.9646 23.2188 35.1696 23.2365 35.3854L23.6573 40.4271C23.6792 40.6876 23.6024 40.9468 23.442 41.1533C23.2816 41.3598 23.0495 41.4984 22.7917 41.5417H24.875V33.2083C24.875 32.9321 24.9848 32.6671 25.1801 32.4718C25.3755 32.2764 25.6404 32.1667 25.9167 32.1667H32.4063L32.3125 32.0729C31.1354 30.8885 29.7677 29.3927 29.2208 28.5833L30.9458 27.4167C31.3698 28.0427 32.6063 29.4125 33.7896 30.6042C34.2716 31.0961 34.772 31.5697 35.2896 32.024C35.4802 32.1854 35.5917 32.2667 35.6344 32.2948C35.5796 32.2681 35.5219 32.2479 35.4625 32.2344C35.5964 32.285 35.7183 32.3627 35.8208 32.4625C37.2583 33.8615 38.8021 34.9042 41.1938 35.3063C41.4219 35.3448 41.6306 35.4581 41.7872 35.6285C41.9437 35.7988 42.0391 36.0164 42.0583 36.2469L42.4073 40.4281C42.4289 40.6885 42.352 40.9474 42.1916 41.1537C42.0313 41.3599 41.7993 41.4984 41.5417 41.5417H43.625V24.875C43.625 22.1875 42.9208 20.6604 42.0917 19.8063ZM36.3333 36.3333C34.3094 36.3333 32.9615 35.3365 32.4261 34.25H34.6781C35.4906 35.0063 36.375 35.6854 37.4177 36.2313C37.0813 36.2969 36.7198 36.3333 36.3333 36.3333Z" fill="white"/>
<rect x="3.5" y="3.5" width="49" height="49" rx="4.33838" stroke="#1A535C"/>
</g>
<defs>
<filter id="filter0_dd_3_694" x="0.580808" y="0.580808" width="54.8384" height="57.2576" filterUnits="userSpaceOnUse" color-interpolation-filters="sRGB">
<feFlood flood-opacity="0" result="BackgroundImageFix"/>
<feColorMatrix in="SourceAlpha" type="matrix" values="0 0 0 0 0 0 0 0 0 0 0 0 0 0 0 0 0 0 127 0" result="hardAlpha"/>
<feOffset dy="2.41919"/>
<feGaussianBlur stdDeviation="1.2096"/>
<feColorMatrix type="matrix" values="0 0 0 0 0 0 0 0 0 0 0 0 0 0 0 0 0 0 0.168 0"/>
<feBlend mode="normal" in2="BackgroundImageFix" result="effect1_dropShadow_3_694"/>
<feColorMatrix in="SourceAlpha" type="matrix" values="0 0 0 0 0 0 0 0 0 0 0 0 0 0 0 0 0 0 127 0" result="hardAlpha"/>
<feOffset/>
<feGaussianBlur stdDeviation="1.2096"/>
<feColorMatrix type="matrix" values="0 0 0 0 0 0 0 0 0 0 0 0 0 0 0 0 0 0 0.084 0"/>
<feBlend mode="normal" in2="effect1_dropShadow_3_694" result="effect2_dropShadow_3_694"/>
<feBlend mode="normal" in="SourceGraphic" in2="effect2_dropShadow_3_694" result="shape"/>
</filter>
</defs>
</svg>
