<svg width="56" height="58" viewBox="0 0 56 58" fill="none" xmlns="http://www.w3.org/2000/svg">
<g filter="url(#filter0_dd_3_699)">
<rect x="3" y="3" width="50" height="50" rx="4.83838" fill="#002500"/>
<path d="M21.75 46.75V48.8333H17.5834V46.75C16.4783 46.75 15.4185 46.311 14.6371 45.5296C13.8557 44.7482 13.4167 43.6884 13.4167 42.5833V11.3333C13.4167 10.2282 13.8557 9.16842 14.6371 8.38701C15.4185 7.60561 16.4783 7.16663 17.5834 7.16663H38.4167C39.5218 7.16663 40.5816 7.60561 41.363 8.38701C42.1444 9.16842 42.5834 10.2282 42.5834 11.3333V42.5833C42.5834 43.6884 42.1444 44.7482 41.363 45.5296C40.5816 46.311 39.5218 46.75 38.4167 46.75V48.8333H34.25V46.75H21.75ZM17.5834 11.3333V21.75H38.4167V11.3333H17.5834ZM17.5834 42.5833H38.4167V25.9166H17.5834V42.5833ZM19.6667 28H23.8334V34.25H19.6667V28ZM19.6667 15.5H23.8334V19.6666H19.6667V15.5Z" fill="white"/>
<rect x="3.5" y="3.5" width="49" height="49" rx="4.33838" stroke="#1A535C"/>
</g>
<defs>
<filter id="filter0_dd_3_699" x="0.580808" y="0.580808" width="54.8384" height="57.2576" filterUnits="userSpaceOnUse" color-interpolation-filters="sRGB">
<feFlood flood-opacity="0" result="BackgroundImageFix"/>
<feColorMatrix in="SourceAlpha" type="matrix" values="0 0 0 0 0 0 0 0 0 0 0 0 0 0 0 0 0 0 127 0" result="hardAlpha"/>
<feOffset dy="2.41919"/>
<feGaussianBlur stdDeviation="1.2096"/>
<feColorMatrix type="matrix" values="0 0 0 0 0 0 0 0 0 0 0 0 0 0 0 0 0 0 0.168 0"/>
<feBlend mode="normal" in2="BackgroundImageFix" result="effect1_dropShadow_3_699"/>
<feColorMatrix in="SourceAlpha" type="matrix" values="0 0 0 0 0 0 0 0 0 0 0 0 0 0 0 0 0 0 127 0" result="hardAlpha"/>
<feOffset/>
<feGaussianBlur stdDeviation="1.2096"/>
<feColorMatrix type="matrix" values="0 0 0 0 0 0 0 0 0 0 0 0 0 0 0 0 0 0 0.084 0"/>
<feBlend mode="normal" in2="effect1_dropShadow_3_699" result="effect2_dropShadow_3_699"/>
<feBlend mode="normal" in="SourceGraphic" in2="effect2_dropShadow_3_699" result="shape"/>
</filter>
</defs>
</svg>
